<svg width="857" height="229" viewBox="0 0 857 229" fill="none" xmlns="http://www.w3.org/2000/svg">
<path d="M160.2 117.5V169.7C160.2 195.2 111.1 215.8 50.5 215.8C32.3 215.8 15.1 213.9 0 210.6V158.4C15.1 161.7 32.3 163.6 50.5 163.6C88 163.6 121.2 155.7 141 143.6C134.9 139.8 127.5 136.5 119.1 133.7C100.3 127.4 76.5 123.6 50.5 123.6C32.3 123.6 15.1 125.5 0 128.8V76.6003C15.1 73.3003 32.3 71.4004 50.5 71.4004C76.7 71.4004 100.8 75.3003 119.7 81.7003C138.6 88.1003 152.3 97.2003 157.7 107.6C159.3 110.8 160.2 114.1 160.2 117.5Z" fill="#040406"/>
<path d="M160.2 46.0004C160.2 55.6004 153.2 64.5004 141.3 71.9004C121.6 59.7004 88.2998 51.7003 50.4998 51.7003C32.2998 51.7003 15.0996 53.6004 0.0996094 56.9004V5.20031C15.1996 1.90031 32.3998 0.000362542 50.4998 0.000362542C111.1 -0.0996375 160.2 20.5004 160.2 46.0004Z" fill="#040406"/>
<path d="M254.5 36.8004V92.2003H255.1C257.9 86.0003 270.7 75.1003 290.5 75.1003C316.3 75.1003 343.8 94.3003 343.8 132.7C343.8 171.1 316.3 190.3 290.5 190.3C270.7 190.3 257.9 179.4 255.1 173.2H254.5V188.1H225.9V36.7003H254.5V36.8004ZM284.8 164.7C300.8 164.7 315.7 153.4 315.7 132.7C315.7 112 300.8 100.7 284.8 100.7C268.8 100.7 253.9 111.8 253.9 132.7C253.9 153.7 268.8 164.7 284.8 164.7Z" fill="#040406"/>
<path d="M360.301 77.3004H388.901V106.1C392.701 89.0003 403.601 75.2003 423.701 75.2003C426.301 75.2003 428.601 75.4003 431.201 76.1003V103.4C428.601 103 426.501 102.8 424.001 102.8C402.501 102.8 389.001 117.7 389.001 139.9V188.3H360.401V77.3004H360.301Z" fill="#040406"/>
<path d="M438.7 132.8C438.7 94.4004 466.2 75.2003 492 75.2003C511.8 75.2003 524.6 86.1004 527.4 92.3004H528V77.4004H556.6V188.3H528V173.4H527.4C524.6 179.6 511.8 190.5 492 190.5C466.2 190.3 438.7 171.1 438.7 132.8ZM497.8 164.7C513.8 164.7 528.7 153.6 528.7 132.7C528.7 111.8 513.8 100.7 497.8 100.7C481.8 100.7 466.9 112 466.9 132.7C466.9 153.4 481.8 164.7 497.8 164.7Z" fill="#040406"/>
<path d="M592.6 26.1003C597.5 26.1003 601.6 27.8003 605.2 31.2003C608.6 34.8003 610.3 38.9004 610.3 43.8004C610.3 48.7004 608.6 53.0004 605.2 56.4004C601.6 59.8004 597.5 61.5004 592.6 61.5004C587.7 61.5004 583.6 59.8004 580.2 56.4004C576.6 53.0004 574.9 48.7004 574.9 43.8004C574.9 38.9004 576.6 34.8003 580.2 31.2003C583.7 27.9003 587.7 26.1003 592.6 26.1003ZM578.4 188.2H607V77.3004H578.4V188.2Z" fill="#040406"/>
<path d="M628.701 77.3004H657.301V92.4004C663.501 82.6004 674.601 75.1003 691.201 75.1003C714.001 75.1003 733.201 89.2004 733.201 122.9V188.1H704.601V127.5C704.601 111.3 695.901 100.6 680.901 100.6C666.201 100.6 657.201 111.3 657.201 127.5V188.1H628.601V77.3004H628.701Z" fill="#040406"/>
<path d="M782.8 187.1L736.7 77.3004H765.9L796.6 154.3L827.1 77.3004H856.5L809.8 188.2L792.5 228.7H764.6L782.8 187.1Z" fill="#040406"/>
</svg>
