<svg width="723" height="200" viewBox="0 0 723 200" fill="none" xmlns="http://www.w3.org/2000/svg">
<path d="M250.299 158.185V39.4146H306.173C327.08 39.4146 351.864 47.0078 351.864 72.5381C351.933 78.0197 350.221 83.3757 346.987 87.8021C343.753 92.2286 339.17 95.4869 333.927 97.0881C349.641 99.3119 357.965 112.45 357.965 125.032C357.965 151.367 331.323 158.141 309.494 158.141L250.299 158.185ZM276.195 89.1876H304.696C314.498 89.1876 325.968 86.7736 325.968 74.3815C325.968 61.9895 314.557 59.59 304.696 59.59H276.195V89.1876ZM276.195 138.024H308.704C319.429 138.024 331.835 136.561 331.835 123.774C331.835 110.987 319.429 109.144 308.704 109.144H276.195V138.024Z" fill="#020203"/>
<path d="M380.16 66.613H405.266V116.562C405.266 135.128 415.507 137.469 427.211 137.469C442.925 137.469 449.596 132.48 449.596 116.196V66.3643H474.746V117.059C474.746 150.914 459.033 159.985 427.211 159.985C395.946 159.985 380.218 149.992 380.218 116.093L380.16 66.613Z" fill="#020203"/>
<path d="M574.57 158.185V145.369C570.785 150.136 565.944 153.959 560.43 156.536C554.915 159.113 548.877 160.374 542.792 160.219C514.863 159.297 498.769 138.273 498.038 114.162C497.291 88.4417 515.594 64.7695 542.983 64.7695C548.86 64.6309 554.693 65.8237 560.044 68.2586C565.395 70.6934 570.126 74.3072 573.882 78.8295V26.4668H599.222V158.142L574.57 158.185ZM548.864 140.058C564.402 140.058 574.029 127.666 574.029 113.24C574.029 98.8148 564.592 86.4081 548.864 86.4081C533.136 86.4081 523.509 98.6246 523.509 113.24C523.509 127.856 533.136 140.058 548.864 140.058Z" fill="#020203"/>
<path d="M651.161 158.185L616.56 66.6128H643.202L669.654 138.58L696.487 66.6128H722.822L672.507 199.999H646.172L662.763 158.185H651.161Z" fill="#020203"/>
<path d="M99.9706 2.57517C99.3223 28.2109 88.8503 52.6179 70.7186 70.7523C52.587 88.8867 28.1816 99.3623 2.54591 100.014C2.2144 100.022 1.88467 99.9637 1.57613 99.8422C1.26758 99.7207 0.986443 99.5388 0.749252 99.307C0.512061 99.0753 0.323601 98.7984 0.194964 98.4928C0.0663278 98.1872 0.000108849 97.8589 0.000200656 97.5273V52.7579C-0.00796711 52.1183 0.233499 51.5008 0.673315 51.0364C1.11313 50.572 1.71665 50.2973 2.35572 50.2707C14.8705 49.6872 26.7175 44.4556 35.5791 35.5994C44.4408 26.7432 49.6795 14.8994 50.2707 2.38497C50.2966 1.76099 50.559 1.17025 51.0046 0.73275C51.4503 0.295247 52.0458 0.0437864 52.6701 0.0294525H97.4395C97.7748 0.0234407 98.1078 0.0852921 98.4186 0.211285C98.7294 0.337278 99.0114 0.524809 99.2479 0.762609C99.4843 1.00041 99.6702 1.28357 99.7944 1.59505C99.9186 1.90654 99.9785 2.23993 99.9706 2.57517Z" fill="#020203"/>
<path d="M199.971 2.57498C199.322 28.2107 188.85 52.6177 170.719 70.7521C152.587 88.8865 128.182 99.3622 102.546 100.014C102.216 100.022 101.887 99.964 101.579 99.8434C101.272 99.7228 100.991 99.5421 100.754 99.3119C100.517 99.0818 100.329 98.8067 100.199 98.5027C100.07 98.1988 100.002 97.8721 100 97.5417V52.7577C99.9923 52.1083 100.242 51.4822 100.694 51.0162C101.146 50.5501 101.765 50.282 102.414 50.2705C114.934 49.6864 126.785 44.4508 135.647 35.5884C144.509 26.7261 149.745 14.8751 150.329 2.35552C150.356 1.72155 150.626 1.12236 151.084 0.683334C151.542 0.244306 152.153 -0.000550101 152.787 9.2802e-07H197.513C197.844 0.00369581 198.172 0.0736929 198.476 0.205877C198.78 0.33806 199.055 0.529759 199.284 0.769691C199.513 1.00962 199.692 1.29295 199.81 1.60298C199.928 1.91301 199.982 2.24349 199.971 2.57498Z" fill="#020203"/>
<path d="M99.9709 102.574C99.3189 128.208 88.8453 152.611 70.714 170.742C52.5827 188.873 28.1794 199.347 2.5462 199.999C2.21592 200.007 1.88739 199.949 1.57981 199.828C1.27222 199.708 0.991746 199.527 0.754753 199.297C0.51776 199.067 0.328998 198.791 0.199495 198.488C0.0699911 198.184 0.00234102 197.857 0.000489209 197.527V152.757C-6.18197e-05 152.123 0.244794 151.512 0.683823 151.054C1.12285 150.596 1.72203 150.326 2.356 150.299C14.8745 149.712 26.7236 144.475 35.5853 135.613C44.4469 126.752 49.6836 114.903 50.271 102.384C50.2932 101.758 50.554 101.163 51 100.723C51.4461 100.282 52.0436 100.029 52.6704 100.014H97.4398C97.7763 100.008 98.1106 100.07 98.4224 100.197C98.7342 100.324 99.0169 100.513 99.2536 100.752C99.4902 100.992 99.6758 101.277 99.7991 101.59C99.9224 101.903 99.9808 102.238 99.9709 102.574Z" fill="#020203"/>
<path d="M199.97 102.575C199.318 128.208 188.845 152.611 170.714 170.743C152.582 188.874 128.179 199.347 102.546 199.999C102.215 200.007 101.887 199.949 101.579 199.829C101.272 199.708 100.991 199.527 100.754 199.297C100.517 199.067 100.329 198.792 100.199 198.488C100.07 198.184 100.002 197.857 100 197.527V152.757C99.9994 152.123 100.244 151.513 100.683 151.055C101.122 150.597 101.722 150.326 102.356 150.3C114.874 149.712 126.723 144.475 135.585 135.614C144.446 126.752 149.683 114.903 150.271 102.385C150.297 101.751 150.568 101.151 151.026 100.712C151.484 100.273 152.094 100.029 152.728 100.029H197.512C197.842 100.033 198.167 100.102 198.469 100.232C198.771 100.363 199.045 100.552 199.273 100.788C199.502 101.025 199.681 101.305 199.801 101.612C199.921 101.918 199.978 102.246 199.97 102.575Z" fill="#020203"/>
</svg>
