<svg width="1029" height="200" viewBox="0 0 1029 200" fill="none" xmlns="http://www.w3.org/2000/svg">
<path d="M59.142 32.1458C56.0203 32.0963 52.9401 32.8657 50.2083 34.3772C43.193 38.4447 39.5043 47.2137 39.6772 59.7374C39.736 64.3094 40.1628 68.8692 40.9534 73.3726C45.5723 94.6762 53.6645 115.075 64.9056 133.751C84.4445 167.963 108.216 192.294 126.956 197.555C129.659 198.436 132.514 198.756 135.346 198.496C138.177 198.235 140.926 197.4 143.423 196.04C150.439 191.973 153.716 182.043 152.991 167.806C152.878 164.707 152.583 161.617 152.11 158.552C148.126 136.769 140.321 115.862 129.055 96.7979C109.673 63.138 85.1938 38.0989 66.61 32.9939C64.3215 32.38 61.9642 32.059 59.5948 32.0388L59.142 32.1458ZM129.698 187.321C119.715 183.477 110.819 177.259 103.778 169.206C92.2195 156.958 82.2268 143.323 74.0287 128.613C63.417 111.053 55.7906 91.8551 51.4598 71.8C48.825 57.1273 50.4223 46.5962 55.5273 43.5662C56.7903 43.0351 58.1465 42.7616 59.5166 42.7616C60.8867 42.7616 62.2429 43.0351 63.5059 43.5662C79.0596 47.6831 102.106 71.8 119.331 102.183C130.002 120.143 137.367 139.87 141.077 160.429C141.651 164.151 141.946 167.91 141.958 171.676C141.958 184.356 139.965 185.789 137.569 187.23C136.272 187.894 134.853 188.286 133.399 188.382C131.945 188.479 130.486 188.277 129.113 187.79" fill="#020203"/>
<path d="M12.2766 110.466C9.94814 111.193 7.78892 112.379 5.92644 113.954C4.06397 115.53 2.53598 117.462 1.43269 119.638C0.53988 121.679 0.0532538 123.875 0 126.102C0 132.483 3.29353 141.178 14.8209 152.664C28.9921 165.523 45.1531 176 62.6759 183.689C93.7009 198.049 124.084 203.549 139.959 197.687C142.293 196.972 144.458 195.79 146.322 194.213C148.186 192.637 149.71 190.698 150.803 188.514C154.154 181.104 154.919 169.214 138.995 154.459C124.248 142.051 107.712 131.941 89.9463 124.471C58.1226 110.112 27.7398 104.611 12.2684 110.474L12.2766 110.466ZM131.025 189.033C118.345 190.869 94.8948 187.197 66.6611 174.212C50.2292 167.057 35.0855 157.248 21.8361 145.179C11.1321 134.731 9.07368 127.477 10.5887 124.126C11.1121 123.211 11.8117 122.408 12.6469 121.765C13.4821 121.122 14.4365 120.651 15.4549 120.379C26.0601 116.394 52.3013 119.103 84.759 134.014C101.478 141.056 117.087 150.486 131.099 162.009C133.885 164.08 136.235 166.679 138.016 169.659C139.796 172.638 140.971 175.94 141.474 179.375C141.451 180.946 141.098 182.494 140.436 183.92C139.956 184.866 139.258 185.686 138.399 186.31C137.54 186.934 136.545 187.345 135.496 187.51C133.9 188.051 132.275 188.504 130.63 188.868" fill="#020203"/>
<path d="M165.163 30.7867C157.184 11.0256 145.467 0.0827935 132.779 0.000455199C120.091 -0.0818831 108.852 11.0091 100.321 30.7867C92.1049 52.6481 88.1014 75.8674 88.5223 99.2181C88.0093 122.572 91.9062 145.814 100.009 167.723C107.987 187.583 119.77 198.427 132.466 198.51C145.163 198.592 156.369 187.583 164.85 167.723C173.126 145.85 177.159 122.601 176.731 99.2181C177.165 75.8591 173.132 52.6324 164.85 30.7867H165.163ZM155.834 163.656C149.37 179.127 141.079 187.583 133.1 187.583C125.122 187.583 117.151 178.732 110.367 163.656C102.661 143.064 98.9261 121.2 99.3581 99.2181C98.9161 77.2597 102.652 55.4175 110.367 34.8542C116.847 19.3829 125.081 10.9267 133.1 10.9267C141.12 10.9267 149.049 19.7781 155.834 34.8542C163.549 55.4175 167.284 77.2597 166.842 99.2181C167.274 121.2 163.539 143.064 155.834 163.656" fill="#020203"/>
<path d="M205.435 32.1457C203.387 32.248 201.356 32.5681 199.375 33.1009C180.792 38.0412 156.304 63.0885 137.004 96.9048C125.686 115.951 117.853 136.863 113.875 158.658C113.398 162.007 113.079 165.196 112.92 168.226C112.286 182.224 115.629 192.154 122.57 196.139C125.076 197.495 127.832 198.329 130.669 198.59C133.507 198.85 136.368 198.532 139.079 197.654C157.745 192.714 181.508 168.383 201.047 133.85C212.151 115.163 220.076 94.7623 224.497 73.4796C225.271 69.2132 225.726 64.8948 225.855 60.5607C225.855 47.6418 222.504 38.6258 215.324 34.4842C212.339 32.7236 208.907 31.8657 205.444 32.014L205.435 32.1457ZM123.369 171.322C123.396 167.556 123.701 163.796 124.283 160.075C128.013 139.551 135.386 119.861 146.053 101.936C163.443 71.5528 186.489 47.4607 201.878 43.3191C203.141 42.788 204.498 42.5145 205.868 42.5145C207.238 42.5145 208.594 42.788 209.857 43.3191C215.044 46.3491 216.559 56.8802 213.925 71.5528C209.776 91.6093 202.298 110.829 191.8 128.416C183.602 143.126 173.609 156.761 162.051 169.008C155.091 177.115 146.207 183.343 136.214 187.123C133.391 187.929 130.376 187.731 127.683 186.563C125.287 185.13 123.221 183.689 123.221 171.009" fill="#020203"/>
<path d="M176.408 124.496C158.642 131.966 142.106 142.076 127.36 154.484C111.411 169.239 111.411 181.359 115.075 188.242C117.46 192.767 121.525 196.175 126.396 197.736C142.345 203.557 172.654 197.736 203.679 183.739C221.212 176.07 237.377 165.59 251.534 152.713C267.483 136.765 267.483 125.912 264.93 119.696C263.827 117.52 262.299 115.588 260.437 114.012C258.574 112.437 256.415 111.251 254.086 110.523C238.137 104.702 207.829 110.523 176.804 124.521L176.408 124.496ZM123.926 179.548C124.426 176.061 125.622 172.71 127.444 169.696C129.266 166.681 131.676 164.064 134.531 162.001C148.488 150.402 164.074 140.917 180.789 133.85C213.172 118.938 239.405 116.221 250.093 120.215C251.111 120.487 252.066 120.958 252.901 121.601C253.736 122.244 254.436 123.046 254.959 123.961C256.474 127.312 254.325 134.566 243.712 145.015C230.558 157.033 215.542 166.837 199.249 174.047C166.865 189.041 140.632 191.594 130.019 187.683C127.954 187.112 126.186 185.771 125.079 183.936C124.384 182.571 123.978 181.077 123.885 179.548" fill="#020203"/>
<path d="M828.035 53.619V67.1404C827.865 69.6765 828.5 72.2015 829.85 74.355C830.983 76.1059 832.63 77.4628 834.566 78.2393C838.136 79.4462 841.9 79.976 845.665 79.8013H996.021V40.4924H987.345V74.0426H973.37V40.5455H964.67V74.0485H909.169V16.0725H900.44V73.8952H845.623C839.063 73.8952 836.694 72.4806 836.694 68.5491V53.4068L828.035 53.619Z" fill="#020203"/>
<path d="M859.977 50.5836H877.99V48.4145H869.968C868.476 48.539 866.99 48.1203 865.783 47.2356C865.169 46.6919 864.788 45.9315 864.722 45.1137C864.722 43.3985 866.284 42.4908 869.06 42.4908H875.184V40.3394H868.477C864.239 40.3394 861.403 42.0015 861.403 44.5243C861.403 46.1865 862.264 47.3005 864.127 48.4086H860.001L859.977 50.5836Z" fill="#020203"/>
<path d="M814.209 16.0195H805.479V79.8485H814.209V16.0195Z" fill="#020203"/>
<path d="M380.594 40.3923H371.912V71.3372C372.243 73.7267 371.953 76.1613 371.069 78.406C370.186 80.6507 368.738 82.6295 366.866 84.1513C360.146 88.6305 352.25 91.0206 344.173 91.0206C336.097 91.0206 328.201 88.6305 321.48 84.1513C319.604 82.6329 318.154 80.6545 317.27 78.4089C316.385 76.1633 316.098 73.727 316.435 71.3372V55.629H307.381V74.1488C307.341 77.4434 308.228 80.6831 309.941 83.4973C311.655 86.3116 314.126 88.5869 317.071 90.0633C325.235 94.7984 334.585 97.0954 344.014 96.6825C353.459 97.1062 362.828 94.8132 371.01 90.0751C373.964 88.5704 376.432 86.2601 378.128 83.4114C379.824 80.5627 380.679 77.2921 380.594 73.9778V40.3923Z" fill="#020203"/>
<path d="M440.586 16.0195V20.3577C440.586 22.0199 440.586 22.5268 439.626 23.2341C438.863 23.7395 437.965 24.0025 437.05 23.9886C436.563 24.0498 436.068 23.9971 435.604 23.8348C435.141 23.6725 434.721 23.4049 434.378 23.053C434.035 22.7012 433.779 22.2747 433.629 21.807C433.479 21.3394 433.439 20.8433 433.513 20.3577V16.0195H430.501V20.2575C430.385 21.1143 430.491 21.9865 430.809 22.7906C431.127 23.5946 431.646 24.3035 432.317 24.8491C433.731 25.7967 435.408 26.2732 437.109 26.2107C438.638 26.2654 440.144 25.8229 441.4 24.9493C441.711 24.7271 441.999 24.4743 442.26 24.1949C443.043 25.1661 444.158 25.8129 445.39 26.0103C446.044 26.0872 446.705 26.0872 447.359 26.0103C449.035 26.0671 450.686 25.5903 452.074 24.6487C452.678 24.1016 453.14 23.4164 453.422 22.6516C453.703 21.8869 453.795 21.0655 453.689 20.2575V16.0195H450.613V20.3577C450.685 20.8383 450.646 21.3291 450.499 21.7923C450.351 22.2555 450.1 22.6788 449.763 23.0295C449.427 23.3802 449.014 23.649 448.558 23.8153C448.101 23.9816 447.612 24.0409 447.129 23.9886C446.328 24.0914 445.519 23.8808 444.87 23.4008C444.22 22.9208 443.782 22.2085 443.645 21.4128V16.0195H440.586Z" fill="#020203"/>
<path d="M618.084 73.8953C617.632 73.6014 617.209 73.2638 616.823 72.8874C615 71.0778 613.935 68.641 613.846 66.0736C613.846 58.252 623.937 52.1986 637.105 52.1986C640.931 52.1654 644.736 52.7792 648.357 54.014C651.435 55.0916 654.248 56.8115 656.609 59.0595C657.594 59.8837 658.391 60.9083 658.948 62.0649C659.505 63.2216 659.809 64.4837 659.839 65.7671C659.845 67.3587 659.474 68.929 658.757 70.3498C658.04 71.7706 656.997 73.0017 655.713 73.9425H670.85V65.6198C670.562 62.6528 669.578 59.7954 667.98 57.2792C666.381 54.7631 664.212 52.659 661.649 51.1376C658.418 49.2538 654.857 48.0035 651.157 47.4537C645.732 46.6284 640.247 46.2577 634.759 46.3456V40.3924H640.206C648.198 40.2573 656.133 41.7681 663.517 44.8307C666.733 46.0253 669.67 47.8629 672.151 50.2314C674.632 52.5998 676.604 55.4493 677.946 58.6056C679.1 62.5373 679.677 66.6152 679.662 70.7124V79.9959H603.979V83.2259C604.159 86.5155 603.035 89.7433 600.85 92.2088C599.352 93.7823 597.501 94.9764 595.45 95.6923C592.586 96.7734 589.522 97.2218 586.468 97.0067H584.11V91.1537C585.953 91.2454 587.798 91.0058 589.556 90.4464C591.184 89.9373 592.613 88.9315 593.641 87.57C595.055 85.6013 595.303 84.34 595.303 79.4477V40.3924H603.979V73.8953H618.084ZM639.781 58.0516H636.704C628.682 58.0516 622.729 61.482 622.729 66.0736C622.729 70.6653 628.782 74.0427 636.757 74.0427C644.732 74.0427 650.786 70.6122 650.786 66.0736C650.786 61.5351 646.294 58.9062 639.787 58.2048" fill="#020203"/>
<path d="M582.67 40.5396V79.9957H573.947C561.033 79.9957 557.396 79.4417 550.989 76.4592C547.663 75.2024 544.769 73.0175 542.649 70.164C540.529 67.3105 539.273 63.9084 539.029 60.3619C539.274 56.9284 540.484 53.6339 542.52 50.8579C544.556 48.082 547.334 45.9375 550.535 44.6714C557.636 41.3078 565.526 39.964 573.34 40.7871L582.67 40.5396ZM573.994 46.3395H570.057C565.655 46.1988 561.268 46.9196 557.142 48.4614C554.629 49.2955 552.411 50.839 550.755 52.9056C549.1 54.9723 548.077 57.4738 547.812 60.1085C548.076 62.7603 549.11 65.277 550.785 67.3494C552.46 69.4217 554.705 70.9593 557.243 71.7732C561.319 73.2359 565.626 73.9546 569.956 73.8952H573.994V46.3395Z" fill="#020203"/>
<path d="M414.8 73.8952C413.088 70.8136 412.235 67.3284 412.33 63.8042C412.328 59.2505 413.738 54.8082 416.368 51.0903C419.349 47.3105 423.2 44.3086 427.593 42.3409C431.986 40.3732 436.791 39.4983 441.595 39.791C447.603 39.6817 453.546 41.0499 458.901 43.7755C462.616 45.746 465.724 48.6909 467.893 52.2943C470.061 55.8976 471.207 60.0233 471.208 64.2286C471.444 67.787 470.524 71.3264 468.585 74.3196H491.543C490.282 73.7655 489.374 73.3117 488.82 73.0052C486.58 71.4689 484.754 69.4036 483.504 66.9925C482.254 64.5814 481.618 61.8989 481.653 59.1831C481.642 55.0103 483.148 50.9758 485.891 47.8308C492.304 42.1806 500.665 39.2485 509.202 39.6554H512.686C516.977 40.0091 518.185 40.1093 524.392 41.0701V47.43C522.977 47.0763 521.869 46.8406 521.162 46.7227C518.004 46.1113 514.794 45.8073 511.578 45.815C498.457 45.815 490.789 50.8604 490.789 58.9827C490.789 67.105 499.465 73.6594 512.633 73.6594H527.769V80.0194H464.3C462.243 82.1958 459.75 83.9148 456.985 85.0648C452.239 87.2478 447.073 88.3663 441.849 88.342C436.833 88.2491 431.889 87.134 427.319 85.0648C424.301 83.9727 421.549 82.253 419.244 80.0194H393.156V16.0725H401.785V73.8952H414.8ZM461.571 64.1579C461.349 59.0657 459.18 54.2532 455.512 50.7144C451.843 47.1756 446.956 45.1809 441.859 45.1424C436.762 45.1038 431.845 47.0242 428.123 50.5071C424.402 53.9899 422.16 58.769 421.861 63.8573C421.98 66.4309 422.609 68.9553 423.711 71.2839C424.814 73.6125 426.368 75.6989 428.283 77.4219C430.199 79.1449 432.438 80.4702 434.87 81.3208C437.301 82.1714 439.878 82.5305 442.45 82.3771C445.664 82.4013 448.829 81.5888 451.633 80.0194C454.563 78.5554 457.045 76.3311 458.82 73.5791C460.595 70.827 461.598 67.6485 461.724 64.376" fill="#020203"/>
<path d="M691.346 16.0725H700.023V73.8952H726.158C724.696 73.3412 723.435 72.7871 722.374 72.2802C719.418 71.1497 716.834 69.221 714.91 66.7088C712.986 64.1966 711.797 61.1995 711.475 58.0514C711.475 47.9605 725.551 39.5317 742.503 39.5317C759.454 39.5317 774.037 47.7836 774.037 58.0986C773.91 61.6214 772.408 64.9541 769.852 67.3821C766.905 70.3305 763.31 72.5506 759.354 73.8657H784.582V16.0725H793.317V80.0017H758.959C756.702 80.02 754.445 79.9196 752.199 79.7011C748.942 79.3851 745.718 78.7936 742.561 77.9328L739.485 78.6401C735.118 79.6429 730.643 80.1003 726.164 80.0017H691.346V16.0725ZM764.559 58.9238C764.559 51.4086 754.468 45.5556 742.208 45.5556C738.593 45.5493 735.005 46.1633 731.598 47.371C724.637 49.8407 720.546 54.0316 720.546 58.7234C720.546 65.8908 730.637 71.9442 742.19 71.9442C753.743 71.9442 764.541 66.1443 764.541 58.9238" fill="#020203"/>
<path d="M996.807 88.625H986.97V99.4233H996.807V88.625Z" fill="#020203"/>
<path d="M349.069 40.5928H339.279V51.3911H349.069V40.5928Z" fill="#020203"/>
<path d="M757.548 16.1196H747.711V26.9651H757.548V16.1196Z" fill="#020203"/>
<path d="M736.71 16.1196H726.92V26.9651H736.71V16.1196Z" fill="#020203"/>
<path d="M577.473 16.1196H567.635V26.9651H577.473V16.1196Z" fill="#020203"/>
<path d="M556.684 16.1196H546.846V26.9651H556.684V16.1196Z" fill="#020203"/>
<path d="M973.851 15.8191H964.013V26.6174H973.851V15.8191Z" fill="#020203"/>
<path d="M355.418 130.451L356.173 121.468C354.743 120.858 353.276 120.336 351.782 119.906L349.059 119.316C346.571 118.941 344.059 118.744 341.543 118.727C332.387 118.494 323.513 121.905 316.87 128.211C313.799 131.291 311.377 134.957 309.749 138.991C308.121 143.025 307.32 147.344 307.392 151.694C307.147 156.17 307.854 160.648 309.465 164.831C311.077 169.015 313.556 172.81 316.74 175.966C319.925 179.122 323.742 181.567 327.939 183.141C332.137 184.715 336.621 185.381 341.095 185.096H345.487L348.31 184.843C350.325 184.58 352.315 184.158 354.263 183.582L356.079 182.927L355.525 173.997C354.44 174.601 353.289 175.076 352.094 175.412C351.087 175.762 350.06 176.05 349.017 176.273C346.51 176.802 343.958 177.091 341.396 177.133C335.042 177.191 328.926 174.723 324.391 170.272C322.067 167.825 320.258 164.937 319.07 161.778C317.883 158.619 317.341 155.254 317.477 151.882C317.285 148.559 317.79 145.233 318.959 142.116C320.129 139 321.937 136.163 324.269 133.787C326.6 131.411 329.403 129.549 332.497 128.321C335.59 127.093 338.907 126.525 342.233 126.655C345.437 126.624 348.618 127.188 351.617 128.317C352.982 128.8 354.286 129.443 355.501 130.233" fill="#020203"/>
<path fill-rule="evenodd" clip-rule="evenodd" d="M424.001 116.629V126.366H412.566V116.629H424.001Z" fill="#020203"/>
<path fill-rule="evenodd" clip-rule="evenodd" d="M423.406 136.911V184.065H413.268V136.911H423.406Z" fill="#020203"/>
<path d="M436.052 136.911V184.065H444.729V162.592C444.729 150.686 449.774 143.418 457.749 143.418C458.851 143.419 459.95 143.538 461.026 143.772C461.481 143.869 461.922 144.022 462.341 144.226V136.457H457.272C454.48 136.394 451.741 137.219 449.45 138.815C447.808 140 446.391 141.469 445.265 143.153C444.927 143.705 444.624 144.278 444.357 144.868V144.868V136.911H436.052Z" fill="#020203"/>
<path d="M587.518 136.911V184.065H596.194V160.276C596.194 149.731 600.909 142.87 608.254 142.87C609.611 142.753 610.974 143.034 612.175 143.679C613.375 144.323 614.362 145.304 615.014 146.501C616.436 149.452 617.095 152.713 616.93 155.985V184.035H625.659V160.276C625.659 149.731 630.375 142.87 637.719 142.87C639.076 142.76 640.435 143.045 641.635 143.689C642.834 144.333 643.822 145.309 644.48 146.501C645.902 149.452 646.56 152.713 646.395 155.985V184.035H655.072V153.768C655.422 150.711 654.935 147.616 653.665 144.814C652.394 142.011 650.387 139.606 647.857 137.854C645.213 136.461 642.27 135.733 639.281 135.732C635.093 135.726 631.044 137.231 627.876 139.97C626.282 141.362 625.009 143.083 624.145 145.015C623.513 143.123 622.461 141.398 621.068 139.97C620.308 139.202 619.462 138.525 618.545 137.954C616.115 136.385 613.259 135.609 610.37 135.732C607.45 135.609 604.551 136.281 601.983 137.676C599.414 139.071 597.273 141.137 595.787 143.654V143.654V136.911H587.518Z" fill="#020203"/>
<path d="M667.079 136.911V184.065H675.708V160.27C675.708 149.725 680.5 142.864 687.815 142.864C689.165 142.751 690.519 143.034 691.711 143.679C692.902 144.324 693.879 145.303 694.523 146.495C695.989 149.433 696.667 152.7 696.491 155.979V184.03H705.168V160.27C705.168 149.725 710.213 142.864 717.275 142.864C718.625 142.756 719.977 143.042 721.169 143.686C722.36 144.331 723.339 145.306 723.988 146.495C725.454 149.433 726.132 152.7 725.957 155.979V184.03H734.633V153.763C734.983 150.705 734.497 147.61 733.226 144.808C731.956 142.005 729.949 139.6 727.419 137.848C724.767 136.474 721.829 135.747 718.842 135.726C715.967 135.757 713.14 136.466 710.591 137.795C708.37 139.019 706.468 140.747 705.038 142.84C704.547 143.574 704.092 144.331 703.677 145.11C703.046 143.227 702.012 141.505 700.647 140.064C699.244 138.656 697.566 137.552 695.717 136.823C693.868 136.094 691.888 135.754 689.902 135.826C686.986 135.73 684.098 136.414 681.534 137.806C678.971 139.199 676.826 141.25 675.319 143.748V143.748V136.911H667.079Z" fill="#020203"/>
<path d="M783.792 183.982V155.277C784.238 152.025 783.772 148.714 782.446 145.711C781.12 142.708 778.986 140.133 776.282 138.272C772.835 136.516 768.997 135.667 765.13 135.803C761.182 135.785 757.27 136.556 753.625 138.072C752.145 138.693 750.711 139.418 749.334 140.241L749.788 147.609C750.897 146.735 752.081 145.958 753.324 145.287C754.225 144.839 755.152 144.445 756.1 144.108C758.547 143.239 761.125 142.794 763.722 142.793C765.598 142.546 767.505 142.831 769.227 143.615C770.949 144.4 772.415 145.653 773.459 147.232C774.767 149.636 775.329 152.375 775.074 155.101H765.537C760.405 155.011 755.334 156.228 750.801 158.637C748.587 159.794 746.742 161.548 745.474 163.7C744.206 165.853 743.567 168.317 743.628 170.815C743.628 179.845 749.882 185.244 760.48 185.244C764.016 185.387 767.518 184.511 770.571 182.721C771.356 182.224 772.113 181.685 772.84 181.106C773.915 180.212 774.864 179.177 775.663 178.029V184.136L783.792 183.982ZM774.708 165.769C774.818 167.864 774.359 169.949 773.382 171.805C772.405 173.661 770.945 175.219 769.156 176.314C766.968 177.538 764.502 178.181 761.995 178.182C760.879 178.303 759.751 178.196 758.678 177.866C757.606 177.536 756.612 176.991 755.757 176.263C754.903 175.536 754.205 174.642 753.708 173.637C753.211 172.631 752.923 171.534 752.864 170.414C752.864 164.614 758.759 161.431 769.563 161.431C770.37 161.384 771.178 161.384 771.985 161.431H774.708V165.769Z" fill="#020203"/>
<path d="M795.647 136.911V184.065H804.277V162.191C804.147 157.703 805.116 153.252 807.1 149.224C808.19 147.271 809.788 145.65 811.724 144.53C813.66 143.411 815.862 142.835 818.099 142.864C819.779 142.729 821.462 143.081 822.947 143.878C824.432 144.674 825.657 145.882 826.474 147.355C828.151 151.233 828.894 155.451 828.643 159.668V184.041H837.173V156.061C837.173 142.893 831.119 135.879 819.867 135.879C815.275 135.754 810.8 137.335 807.306 140.318C805.956 141.466 804.872 142.894 804.129 144.503V136.911H795.647Z" fill="#020203"/>
<path d="M884.799 155.931C882.84 153.528 880.203 151.77 877.231 150.886L874.407 150.179C876.909 149.845 879.277 148.853 881.268 147.302C882.672 146.209 883.811 144.813 884.598 143.218C885.672 140.878 886.191 138.322 886.113 135.75C886.335 133.148 885.818 130.537 884.622 128.216C883.426 125.895 881.6 123.958 879.353 122.629C875.161 120.498 870.494 119.473 865.796 119.652H850.642V183.988H863.509C879.753 183.988 888.335 177.734 888.335 165.716C888.35 162.139 887.097 158.673 884.799 155.931ZM856.996 125.105H865.772C869.025 124.915 872.268 125.612 875.156 127.12C876.699 127.986 877.956 129.285 878.772 130.855C879.588 132.426 879.927 134.201 879.747 135.962C879.747 143.583 874.248 147.715 864.057 147.715H856.984L856.996 125.105ZM863.479 178.436H856.819V153.208H862.418C867.277 152.826 872.152 153.713 876.565 155.784C878.269 156.821 879.647 158.318 880.54 160.103C881.432 161.888 881.803 163.889 881.61 165.875C881.722 174.121 875.574 178.436 863.456 178.436H863.479Z" fill="#020203"/>
<path d="M931.924 183.988V153.338C932.329 150.42 931.941 147.446 930.8 144.73C929.659 142.014 927.808 139.655 925.441 137.901C922.423 136.391 919.075 135.661 915.703 135.779C913.168 135.783 910.643 136.106 908.188 136.74C907.009 137.041 905.966 137.294 905.111 137.6C903.878 138.011 902.666 138.483 901.48 139.015V144.668C902.781 143.811 904.163 143.085 905.606 142.499L908.182 141.691C910.362 141.062 912.622 140.756 914.89 140.783C917.223 140.652 919.55 141.121 921.65 142.145C923.295 143.366 924.576 145.01 925.358 146.903C926.139 148.796 926.392 150.865 926.089 152.89V155.248H924.91C917.377 154.544 909.792 155.831 902.913 158.979C900.69 160.2 898.855 162.02 897.615 164.232C896.375 166.444 895.78 168.959 895.899 171.492C895.854 173.423 896.229 175.34 896.996 177.112C897.764 178.884 898.906 180.469 900.344 181.757C901.783 183.045 903.483 184.007 905.329 184.575C907.174 185.143 909.121 185.305 911.035 185.049C915.366 185.148 919.584 183.659 922.894 180.864C924.262 179.611 925.42 178.146 926.325 176.526V184.136L931.924 183.988ZM925.718 163.152C925.805 165.724 925.499 168.294 924.81 170.773C924.511 172.006 924.053 173.195 923.448 174.31C922.24 176.27 920.51 177.856 918.452 178.89C916.394 179.924 914.089 180.364 911.795 180.163C905.541 180.163 901.704 177.033 901.704 171.634C901.652 169.888 902.099 168.162 902.992 166.661C903.886 165.16 905.19 163.944 906.75 163.158C912.184 160.813 918.107 159.826 924.008 160.282H925.723L925.718 163.152Z" fill="#020203"/>
<path d="M942.474 136.911V184.065H948.274V157.953C948.151 154.167 949.058 150.419 950.897 147.108C952 145.104 953.645 143.45 955.642 142.335C957.64 141.22 959.911 140.688 962.196 140.801C969.664 140.801 973.395 145.846 973.395 155.383V184.041H979.195V153.751C979.195 141.962 973.595 135.638 963.151 135.638C960.813 135.48 958.469 135.853 956.294 136.726C954.12 137.6 952.17 138.952 950.59 140.683C949.548 142.187 948.732 143.835 948.168 145.575V136.911H942.474Z" fill="#020203"/>
<path d="M991.712 119.558V184.041H997.512V159.822L1020.77 184.041H1028.85L1003.06 157.806L1026.02 136.917H1018.55L997.512 156.191V119.558H991.712Z" fill="#020203"/>
<path d="M366.217 140.548C367.596 139.711 369.03 138.969 370.508 138.325C371.443 137.937 372.404 137.616 373.385 137.365C376.175 136.477 379.086 136.034 382.014 136.05C385.901 135.925 389.755 136.793 393.213 138.573C398.258 141.52 400.681 146.949 400.681 155.525V182.638C400.641 183.192 400.641 183.747 400.681 184.301H393.16V177.935C392.362 179.069 391.412 180.089 390.337 180.965C389.61 181.543 388.852 182.082 388.067 182.58C385.028 184.403 381.516 185.281 377.976 185.102C367.367 185.102 361.072 179.756 361.072 170.72C360.973 168.245 361.56 165.79 362.766 163.626C363.972 161.462 365.752 159.673 367.909 158.454C372.446 156.064 377.517 154.865 382.645 154.971H391.828C392.084 152.252 391.541 149.517 390.266 147.102C389.216 145.532 387.747 144.289 386.026 143.512C384.305 142.736 382.4 142.458 380.529 142.711C377.921 142.691 375.33 143.118 372.866 143.972C371.923 144.29 371.011 144.694 370.143 145.18C368.855 145.801 367.651 146.581 366.559 147.503L366.217 140.548ZM391.952 161.838H386.806C376.008 161.838 370.108 165.015 370.108 170.868C370.173 171.984 370.464 173.076 370.965 174.076C371.465 175.076 372.163 175.964 373.017 176.686C373.871 177.409 374.862 177.95 375.932 178.277C377.001 178.604 378.126 178.71 379.238 178.589C381.74 178.586 384.203 177.962 386.405 176.774C388.2 175.669 389.663 174.1 390.641 172.233C391.618 170.365 392.073 168.269 391.958 166.164L391.952 161.838Z" fill="#020203"/>
<path d="M490.183 135.803C491.875 135.793 493.564 135.945 495.228 136.256C499.823 137.063 504.064 139.248 507.388 142.522C511.907 147.319 514.369 153.693 514.249 160.281C514.392 163.515 513.879 166.744 512.741 169.774C511.602 172.804 509.862 175.572 507.625 177.911C505.387 180.25 502.699 182.111 499.723 183.383C496.746 184.655 493.543 185.31 490.306 185.31C487.07 185.31 483.866 184.655 480.89 183.383C477.913 182.111 475.225 180.25 472.988 177.911C470.751 175.572 469.01 172.804 467.872 169.774C466.733 166.744 466.22 163.515 466.364 160.281C466.188 157.078 466.679 153.872 467.805 150.867C468.931 147.863 470.667 145.124 472.905 142.824C475.142 140.525 477.833 138.714 480.805 137.506C483.778 136.299 486.969 135.721 490.177 135.809L490.183 135.803ZM490.177 178.141C492.658 178.209 495.108 177.58 497.25 176.326C499.775 174.613 501.816 172.279 503.177 169.548C504.537 166.818 505.172 163.782 505.018 160.735C505.018 150.644 498.812 142.976 490.283 142.976C488.506 142.929 486.74 143.256 485.097 143.934C483.454 144.612 481.972 145.627 480.746 146.913C477.361 150.689 475.555 155.62 475.7 160.688C475.679 164.38 476.617 168.014 478.424 171.233C479.581 173.376 481.302 175.162 483.4 176.398C485.498 177.634 487.895 178.274 490.33 178.247" fill="#020203"/>
<path d="M544.536 119.558H554.22L581.463 184.041H571.378L564.717 167.744H533.384L526.823 184.041H517.086L544.536 119.558ZM549.074 128.287L536.36 160.223H562.041L549.074 128.287Z" fill="#020203"/>
</svg>
