<svg width="749" height="200" viewBox="0 0 749 200" fill="none" xmlns="http://www.w3.org/2000/svg">
<path d="M185.341 27.1969V88.106L142.765 129.015H111.705C107.614 129.015 104.28 125.833 104.28 121.894V102.954L129.129 79.0151C130.644 77.6514 131.25 75.8333 131.25 74.0151C131.25 72.1969 130.492 70.3787 129.129 69.0151L104.28 45.0757V27.1969C104.28 23.2575 107.614 20.0757 111.705 20.0757H177.917C182.008 20.0757 185.341 23.2575 185.341 27.1969Z" fill="#020203"/>
<path d="M104.28 45.0758V102.955L82.3106 124.015C79.4318 126.742 74.7348 126.742 71.8561 124.015L2.15909 57.0455C-0.719697 54.3182 -0.719697 49.7727 2.15909 46.8939L48.8258 2.04545C51.7045 -0.681818 56.4015 -0.681818 59.2803 2.04545L104.28 45.0758Z" fill="#020203"/>
<path d="M255.947 130.379L186.25 197.349C183.371 200.076 178.674 200.076 175.796 197.349L128.977 152.349C126.099 149.621 126.099 145.076 128.977 142.197L142.765 129.015H177.917C180.038 129.015 181.856 128.258 183.22 126.894C184.584 125.53 185.341 123.864 185.341 121.894V88.1061L198.674 75.2273C201.553 72.5001 206.25 72.5001 209.129 75.2273L255.947 120.227C258.826 123.106 258.826 127.5 255.947 130.379Z" fill="#020203"/>
<path d="M647.765 54.7734H709.887C723.22 54.7734 731.856 58.5613 738.069 64.4704C744.584 70.6825 748.523 79.3189 748.523 88.4098C748.523 96.4401 745.493 104.016 740.341 109.925C733.978 117.198 724.432 121.592 710.038 121.592H666.856V144.622H641.705V60.3795C641.553 56.5916 643.675 54.7734 647.765 54.7734ZM666.705 99.925H710.341C715.947 99.925 719.129 98.2583 721.099 95.6825C722.462 94.0159 723.372 91.8946 723.372 89.3189C723.372 86.5916 722.614 84.4704 720.947 82.5007C718.826 80.0765 715.644 78.5613 710.341 78.5613H668.523C667.462 78.5613 666.705 79.0159 666.705 80.3795V99.925Z" fill="#020203"/>
<path d="M579.735 144.773H560.038C543.22 144.773 530.947 139.167 522.311 130.076C514.886 122.198 510.189 111.592 510.189 99.7734C510.189 86.7431 515.947 74.9249 525.341 66.5916C533.674 59.3189 544.886 54.7734 560.038 54.7734H579.735C594.886 54.7734 606.099 59.3189 614.432 66.5916C623.674 74.7734 629.583 86.7431 629.583 99.7734C629.583 111.592 625.038 122.198 617.462 130.076C608.977 139.167 596.553 144.773 579.735 144.773ZM579.735 78.5613H560.038C551.553 78.5613 546.25 80.834 542.311 84.4704C538.068 88.2583 535.341 93.8643 535.341 99.9249C535.341 105.379 537.614 110.379 541.099 114.167C545.189 118.41 551.099 121.743 559.886 121.743H579.583C588.523 121.743 594.432 118.41 598.371 114.167C602.008 110.379 604.129 105.379 604.129 99.9249C604.129 93.8643 601.553 88.4098 597.159 84.4704C593.523 80.834 588.22 78.5613 579.735 78.5613Z" fill="#020203"/>
<path d="M506.553 144.773H438.523C415.493 144.773 408.068 135.076 408.068 115.531V54.7734H433.22V113.258C433.22 119.773 435.038 121.743 441.553 121.743H506.553V144.773Z" fill="#020203"/>
<path d="M315.796 54.7734H397.008V78.5613H327.765C325.189 78.5613 323.826 79.9249 323.826 82.5007V92.1977H385.947V114.622H323.826V144.773H298.674V71.2886C298.977 60.0765 304.583 54.7734 315.796 54.7734Z" fill="#020203"/>
</svg>
