<svg width="424" height="164" viewBox="0 0 424 164" fill="none" xmlns="http://www.w3.org/2000/svg">
<mask id="mask0_6066_916" style="mask-type:luminance" maskUnits="userSpaceOnUse" x="0" y="0" width="424" height="164">
<path d="M423.594 0H0V164H423.594V0Z" fill="white"/>
</mask>
<g mask="url(#mask0_6066_916)">
<path d="M423.582 -0.000732422H400.184C393.693 -0.000732422 387.625 3.21347 383.981 8.58873L352.688 54.7503C351.855 55.9744 350.049 55.9744 349.213 54.7503L317.923 8.58873C314.284 3.21347 308.211 -0.000732422 301.72 -0.000732422H278.322L334.064 82.2285L278.629 163.999H302.027C308.518 163.999 314.586 160.785 318.23 155.41L349.213 109.706C350.049 108.482 351.855 108.482 352.688 109.706L383.671 155.41C387.31 160.785 393.386 163.999 399.877 163.999H423.275L367.838 82.2285L423.582 -0.000732422Z" fill="#020203"/>
<path d="M230.182 16.7747V163.999H241.365C250.632 163.999 258.142 156.49 258.142 147.224V-0.000732422H246.959C237.692 -0.000732422 230.182 7.50822 230.182 16.7747Z" fill="#020203"/>
<path d="M209.683 -0.000244141H199.732C188.775 -0.000244141 179.281 7.5771 176.853 18.2592L154.59 116.128L135.104 24.7697C131.499 7.88483 114.174 -3.50169 96.4459 1.39486C85.1538 4.51332 76.7821 14.0534 74.3403 25.5083L55.0523 116.005L32.8303 18.2661C30.3954 7.58392 20.902 -0.000244141 9.94487 -0.000244141H0L37.2968 163.993H51.4274C64.2517 163.993 75.332 155.027 78.0062 142.485L101.849 30.5963C102.143 29.208 103.388 28.2027 104.804 28.2027C106.22 28.2027 107.465 29.208 107.759 30.5963L131.622 142.492C134.297 155.034 145.377 163.993 158.201 163.993H172.38L209.683 -0.000244141Z" fill="#020203"/>
</g>
</svg>
