<svg width="1116" height="254" viewBox="0 0 1116 254" fill="none" xmlns="http://www.w3.org/2000/svg">
<path d="M81.848 8.94853C98.128 2.88187 115.488 -0.478152 132.901 0.0551817C162.115 -0.811485 191.275 8.69518 215.141 25.3885C227.928 35.2818 239.981 46.9085 247.528 61.3885C224.715 74.1085 202.821 88.7218 178.595 98.7085C174.021 100.442 168.808 102.655 163.995 100.482C156.235 97.2419 152.008 89.3885 145.261 84.7485C142.315 82.5485 138.475 82.9352 135.021 82.6152C134.808 86.4685 134.648 90.3219 134.488 94.1885C121.555 101.349 111.728 112.589 102.848 124.149C101.181 126.535 99.1946 129.669 100.995 132.562C104.928 140.322 112.155 146.975 120.955 148.522C129.328 150.495 137.781 147.735 146.221 148.002C173.061 147.282 197.195 161.055 219.621 174.162C228.181 179.509 237.701 183.389 245.701 189.589C245.488 194.429 241.728 198.189 239.101 201.989C231.208 211.335 222.528 220.095 213.035 227.815C196.741 241.029 176.368 248.069 155.928 251.615C137.141 254.815 117.715 254.362 99.2079 249.695C78.7013 245.549 59.5413 235.709 43.6346 222.215C34.408 213.682 25.2346 204.722 19.1546 193.589C7.66128 173.122 -0.472049 150.029 0.021284 126.295C-0.0453827 118.042 -0.00538381 109.709 1.80795 101.602C4.20795 89.0419 9.88795 77.4952 15.2746 66.0152C21.1413 53.9219 30.608 44.1752 40.1013 34.8818C51.768 23.1085 66.648 15.1485 81.848 8.94853Z" fill="#764C24"/>
<path d="M719.981 1.66847C725.408 -0.171533 731.261 0.828495 736.888 0.655161C781.475 0.655161 826.048 0.72183 870.635 0.615163C870.795 16.4685 870.621 32.3352 870.701 48.2018C834.261 48.4418 797.808 47.7885 761.381 48.5085C761.541 65.4018 761.408 82.2818 761.461 99.1751C797.741 99.5751 834.048 98.5618 870.315 99.6818C870.781 115.095 870.875 130.522 870.288 145.922C833.995 146.255 797.688 145.348 761.408 146.388C761.475 164.762 761.528 183.135 761.381 201.508C797.795 202.295 834.248 201.628 870.688 201.842C870.648 217.695 870.741 233.548 870.675 249.402C822.048 249.335 773.421 249.348 724.795 249.402C721.888 249.415 718.781 248.682 716.901 246.308C712.515 241.655 713.915 234.762 713.688 228.975C713.821 156.948 713.741 84.9352 713.728 12.9085C713.515 8.3885 715.515 3.4018 719.981 1.66847Z" fill="#764C24"/>
<path d="M899.875 1.82852C914.461 1.25519 929.061 1.49516 943.648 1.54849C950.528 1.28183 955.781 6.58852 959.141 12.0285C975.475 39.8819 991.061 68.2019 1007.37 96.0685C1013.67 87.6418 1018.37 78.2018 1023.67 69.1485C1031.99 54.3618 1040.63 39.7619 1048.75 24.8685C1052.59 18.2019 1055.82 10.9485 1061.38 5.49519C1064.97 1.52186 1070.57 1.30849 1075.54 1.41515C1088.82 1.68182 1102.11 1.20184 1115.39 1.81518C1111.23 11.9085 1105.01 20.9218 1099.79 30.4552C1092.95 42.6818 1086.45 55.0952 1078.95 66.9352C1066.46 88.7752 1054.39 110.869 1041.73 132.602C1037.66 139.962 1030.62 146.535 1030.98 155.548C1031.1 182.708 1031.03 209.882 1031.06 237.055C1031.39 242.175 1028.73 248.402 1023.07 249.109C1015.23 249.869 1007.34 249.189 999.488 249.469C995.355 249.349 990.421 249.922 987.275 246.629C983.848 243.535 984.075 238.589 984.048 234.375C984.288 209.455 983.995 184.522 984.221 159.602C984.395 154.922 983.581 150.202 981.221 146.109C966.275 118.122 949.448 91.1752 934.328 63.2685C929.795 55.4818 924.888 47.8952 920.701 39.8952C913.861 27.1485 905.928 14.9885 899.875 1.82852Z" fill="#764C24"/>
<path d="M460.408 4.49518C538.075 4.53518 615.741 4.52182 693.408 4.50848C693.501 22.6285 693.461 40.7485 693.421 58.8818C664.608 59.0285 635.808 58.6552 607.008 59.0552C606.648 122.508 607.088 185.962 606.781 249.415C586.901 249.308 567.035 249.442 547.155 249.362C547.141 219.535 547.141 189.708 547.181 159.882C557.035 162.028 566.741 165.642 576.941 165.468C585.195 165.308 594.141 160.095 595.795 151.522C596.448 145.282 591.021 139.495 584.808 139.295C572.888 138.202 560.181 136.335 550.568 128.588C547.368 126.228 546.808 122.108 546.928 118.428C547.035 98.5618 547.075 78.6952 546.941 58.8418C518.035 59.1752 489.101 58.9752 460.181 58.9485C460.661 40.8018 460.315 22.6418 460.408 4.49518Z" fill="#764C24"/>
<path d="M347.488 7.58848C349.768 4.04181 354.501 4.52184 358.155 4.32184C374.648 4.57517 391.155 4.08182 407.635 4.54848C412.528 4.32182 415.621 8.50851 417.275 12.5752C424.408 29.1752 431.528 45.7752 438.528 62.4285C451.781 89.6018 461.888 118.162 474.781 145.508C484.075 169.175 494.528 192.362 504.648 215.695C508.995 227.042 515.101 237.722 518.328 249.508C500.475 249.508 482.621 249.442 464.781 249.535C461.848 249.335 458.155 249.775 456.181 247.095C453.288 243.322 451.835 238.695 450.048 234.348C442.075 213.175 431.795 192.962 423.755 171.802C416.061 151.348 406.608 131.602 398.595 111.268C393.941 99.0818 388.235 87.3218 383.755 75.0552C380.088 65.0818 371.888 57.3618 362.421 52.8552C352.661 48.2552 341.688 47.6285 331.301 45.2285C333.768 37.6952 337.021 30.4818 340.168 23.2151C342.475 17.9618 344.208 12.3618 347.488 7.58848Z" fill="#764C24"/>
<path d="M281.688 163.482C284.461 162.815 287.341 162.962 290.168 162.935C311.541 163.202 332.928 163.015 354.301 163.029C358.755 162.775 362.848 164.855 366.128 167.722C379.208 178.602 391.541 190.389 404.835 201.015C408.408 203.949 411.768 207.122 414.995 210.442C385.408 211.522 355.768 210.482 326.168 210.909C321.355 210.442 319.435 215.389 317.955 219.015C314.075 229.282 309.768 239.402 305.168 249.375C284.355 249.589 263.528 249.495 242.715 249.402C254.661 223.282 265.688 196.749 276.875 170.295C278.128 167.828 279.208 164.962 281.688 163.482Z" fill="#764C24"/>
</svg>
